<svg width="120" height="45" viewBox="0 0 120 45" fill="none" xmlns="http://www.w3.org/2000/svg">
<g clip-path="url(#clip0)">
<path d="M110.444 -9.78906e-05H9.56145C9.19372 -9.78906e-05 8.8304 -9.78906e-05 8.46364 0.00215211C8.15663 0.00440211 7.85207 0.0109384 7.54211 0.0164396C6.86874 0.0253291 6.19695 0.0917879 5.53259 0.215238C4.86915 0.341376 4.2265 0.579182 3.62637 0.920613C3.02697 1.26493 2.47929 1.71234 2.00318 2.24661C1.52457 2.77937 1.12561 3.39517 0.82165 4.07033C0.516847 4.74415 0.305496 5.46621 0.194896 6.21157C0.083244 6.95599 0.0231632 7.70899 0.0151925 8.46382C0.00588648 8.80874 0.00490373 9.15481 0 9.49978V35.5033C0.00490373 35.8526 0.00588648 36.191 0.0151925 36.5405C0.0231657 37.2953 0.0832464 38.0482 0.194896 38.7926C0.30519 39.5384 0.516554 40.2609 0.82165 40.9349C1.12548 41.6079 1.52449 42.2212 2.00318 42.751C2.47748 43.2877 3.02552 43.7354 3.62637 44.0771C4.2265 44.4194 4.86908 44.6586 5.53259 44.7867C6.19707 44.9092 6.86879 44.9757 7.54211 44.9856C7.85207 44.9933 8.15663 44.9977 8.46364 44.9977C8.83039 44.9999 9.19374 44.9999 9.56145 44.9999H110.444C110.804 44.9999 111.171 44.9999 111.531 44.9977C111.837 44.9977 112.15 44.9933 112.455 44.9856C113.128 44.9762 113.798 44.9097 114.461 44.7867C115.127 44.6577 115.772 44.4186 116.375 44.0771C116.975 43.7352 117.522 43.2875 117.996 42.751C118.474 42.2192 118.874 41.6063 119.181 40.9349C119.484 40.2604 119.693 39.538 119.802 38.7926C119.914 38.0481 119.976 37.2953 119.988 36.5405C119.992 36.191 119.992 35.8526 119.992 35.5033C120 35.0946 120 34.6882 120 34.2728V10.728C120 10.3161 120 9.90737 119.992 9.49978C119.992 9.15481 119.992 8.80874 119.988 8.46377C119.976 7.70888 119.914 6.95604 119.802 6.21152C119.693 5.46659 119.484 4.74459 119.181 4.07029C118.562 2.717 117.581 1.61543 116.375 0.920512C115.772 0.579915 115.127 0.342173 114.461 0.215137C113.798 0.0911427 113.128 0.0246608 112.455 0.0162821C112.15 0.0107921 111.837 0.00419961 111.531 0.00200586C111.171 -0.000244141 110.804 -0.000244141 110.444 -0.000244141V-9.78906e-05Z" fill="black"/>
<path d="M8.46853 44.0156C8.163 44.0156 7.86484 44.0112 7.56171 44.0036C6.93373 43.9944 6.30722 43.9331 5.68732 43.8201C5.10929 43.7084 4.54934 43.5007 4.02593 43.2037C3.50732 42.9092 3.0343 42.5231 2.62501 42.06C2.20978 41.6025 1.86409 41.0718 1.60163 40.489C1.33628 39.9024 1.15264 39.2736 1.05711 38.6246C0.953942 37.9273 0.898126 37.2221 0.890139 36.5153C0.883781 36.278 0.875458 35.488 0.875458 35.488V9.49988C0.875458 9.49988 0.884323 8.72205 0.890189 8.49353C0.897836 7.78779 0.953328 7.08373 1.05618 6.38745C1.15189 5.73666 1.33567 5.10609 1.60117 4.51758C1.86267 3.93519 2.20644 3.40409 2.61916 2.94489C3.03142 2.48132 3.50594 2.09318 4.02544 1.79461C4.54764 1.49861 5.10654 1.29232 5.6834 1.18268C6.30534 1.06857 6.93402 1.00687 7.56417 0.998111L8.46903 0.984375H111.526L112.442 0.998663C113.066 1.00699 113.689 1.06813 114.305 1.18158C114.888 1.2926 115.453 1.50032 115.981 1.79791C117.022 2.39961 117.869 3.35156 118.403 4.52033C118.664 5.10477 118.845 5.7302 118.939 6.37536C119.044 7.07736 119.102 7.78696 119.114 8.49848C119.117 8.81708 119.117 9.1593 119.117 9.49988C119.125 9.92176 119.125 10.3233 119.125 10.7281V34.2729C119.125 34.6816 119.125 35.0804 119.117 35.4825C119.117 35.8484 119.117 36.1835 119.113 36.5284C119.101 37.2272 119.044 37.9242 118.941 38.6136C118.848 39.2673 118.665 39.901 118.4 40.4923C118.135 41.0688 117.792 41.5949 117.381 42.0513C116.972 42.5168 116.498 42.9052 115.978 43.2016C115.451 43.5008 114.887 43.7093 114.305 43.8201C113.685 43.9337 113.059 43.995 112.431 44.0036C112.137 44.0112 111.83 44.0156 111.531 44.0156L110.444 44.0179L8.46853 44.0156Z" fill="white"/>
<path d="M25.0669 22.3753C25.0781 21.3988 25.3093 20.4414 25.739 19.5921C26.1686 18.7429 26.7828 18.0293 27.5243 17.5179C27.0533 16.7631 26.4318 16.142 25.7093 15.7038C24.9868 15.2656 24.1832 15.0225 23.3623 14.9936C21.6112 14.7874 19.9135 16.1692 19.0212 16.1692C18.1115 16.1692 16.7376 15.0141 15.2581 15.0483C14.3012 15.0829 13.3685 15.3951 12.5511 15.9544C11.7337 16.5137 11.0593 17.301 10.5937 18.2395C8.57696 22.1568 10.0813 27.9139 12.0132 31.0803C12.9798 32.6308 14.1094 34.3628 15.5876 34.3013C17.034 34.234 17.5743 33.2666 19.3202 33.2666C21.05 33.2666 21.5569 34.3013 23.065 34.2623C24.6171 34.234 25.595 32.7049 26.5277 31.1397C27.2222 30.0349 27.7566 28.8139 28.1111 27.5218C27.2094 27.094 26.4399 26.3778 25.8985 25.4626C25.3572 24.5474 25.0679 23.4737 25.0669 22.3753Z" fill="black"/>
<path d="M22.2183 12.9113C23.0646 11.7716 23.4815 10.3066 23.3806 8.82764C22.0876 8.97998 20.8934 9.6732 20.0356 10.7692C19.6163 11.3046 19.2951 11.9275 19.0905 12.6022C18.8858 13.277 18.8017 13.9904 18.843 14.7016C19.4897 14.7091 20.1294 14.5518 20.7141 14.2417C21.2988 13.9316 21.8131 13.4767 22.2183 12.9113Z" fill="black"/>
<path d="M42.4205 30.5319H37.6739L36.5339 34.3079H34.5234L39.0194 20.3376H41.1083L45.6043 34.3079H43.5595L42.4205 30.5319ZM38.1655 28.7895H41.928L40.0732 22.6613H40.0212L38.1655 28.7895Z" fill="black"/>
<path d="M55.3141 29.2156C55.3141 32.3808 53.804 34.4144 51.5251 34.4144C50.9479 34.4482 50.3737 34.2991 49.8685 33.9839C49.3633 33.6687 48.9474 33.2004 48.6685 32.6324H48.6254V37.6773H46.7618V24.1224H48.5656V25.8165H48.5999C48.8917 25.2512 49.3146 24.7852 49.8237 24.4681C50.3327 24.1511 50.9089 23.9947 51.4908 24.0158C53.7952 24.0158 55.3141 26.0593 55.3141 29.2156ZM53.3985 29.2156C53.3985 27.1535 52.4486 25.7978 50.9992 25.7978C49.5753 25.7978 48.6176 27.1821 48.6176 29.2156C48.6176 31.2679 49.5753 32.6423 50.9992 32.6423C52.4486 32.6423 53.3985 31.2964 53.3985 29.2156H53.3985Z" fill="black"/>
<path d="M65.3074 29.2156C65.3074 32.3808 63.7968 34.4144 61.5179 34.4144C60.9407 34.4482 60.3666 34.2991 59.8614 33.9839C59.3561 33.6687 58.9403 33.2004 58.6613 32.6324H58.6182V37.6773H56.7546V24.1224H58.5585V25.8165H58.5927C58.8845 25.2512 59.3074 24.7852 59.8165 24.4681C60.3255 24.1511 60.9017 23.9947 61.4836 24.0158C63.788 24.0158 65.3074 26.0593 65.3074 29.2156ZM63.3914 29.2156C63.3914 27.1535 62.4414 25.7978 60.9921 25.7978C59.5681 25.7978 58.6104 27.1821 58.6104 29.2156C58.6104 31.2679 59.5681 32.6423 60.9921 32.6423C62.4414 32.6423 63.3914 31.2964 63.3914 29.2156Z" fill="black"/>
<path d="M71.9108 30.4155C72.0489 31.8008 73.2486 32.7105 74.8879 32.7105C76.4587 32.7105 77.5888 31.8008 77.5888 30.5516C77.5888 29.4673 76.9072 28.818 75.2933 28.3731L73.6794 27.9369C71.3928 27.3173 70.3312 26.1176 70.3312 24.1708C70.3312 21.7604 72.2036 20.1047 74.8615 20.1047C77.4938 20.1047 79.2977 21.7604 79.3584 24.1708H77.4772C77.3646 22.7766 76.3373 21.9351 74.836 21.9351C73.3347 21.9351 72.3074 22.7865 72.3074 24.0258C72.3074 25.0134 72.9636 25.5946 74.5686 26.0395L75.9406 26.4174C78.4956 27.0953 79.5562 28.2467 79.5562 30.2901C79.5562 32.9038 77.7014 34.5407 74.7498 34.5407C71.9881 34.5407 70.1235 32.9422 70.0031 30.4154L71.9108 30.4155Z" fill="black"/>
<path d="M83.5802 21.7122V24.1226H85.3067V25.7782H83.5802V31.3933C83.5802 32.2656 83.9259 32.6721 84.6848 32.6721C84.8898 32.6681 85.0944 32.652 85.2979 32.6237V34.2695C84.9567 34.341 84.6098 34.3734 84.2628 34.3662C82.4246 34.3662 81.7078 33.5916 81.7078 31.6163V25.7782H80.3877V24.1226H81.7077V21.7122H83.5802Z" fill="black"/>
<path d="M86.3056 29.2158C86.3056 26.0111 87.9881 23.9973 90.6116 23.9973C93.244 23.9973 94.9186 26.0111 94.9186 29.2158C94.9186 32.4293 93.2528 34.4343 90.6116 34.4343C87.9714 34.4343 86.3056 32.4293 86.3056 29.2158ZM93.0197 29.2158C93.0197 27.0175 92.1217 25.72 90.6116 25.72C89.1015 25.72 88.2035 27.0273 88.2035 29.2158C88.2035 31.423 89.1015 32.7106 90.6116 32.7106C92.1217 32.7106 93.0197 31.423 93.0197 29.2158H93.0197Z" fill="black"/>
<path d="M96.4551 24.1225H98.2325V25.8561H98.2757C98.3959 25.3147 98.6787 24.8362 99.0764 24.5011C99.4741 24.166 99.9625 23.9946 100.46 24.0159C100.674 24.0151 100.888 24.0413 101.098 24.0939V26.0495C100.827 25.9566 100.544 25.9139 100.261 25.9232C99.9899 25.9108 99.72 25.9644 99.4695 26.0801C99.2189 26.1959 98.9937 26.3711 98.8092 26.5937C98.6247 26.8163 98.4853 27.0811 98.4007 27.3699C98.316 27.6586 98.2881 27.9645 98.3187 28.2665V34.3079H96.4551L96.4551 24.1225Z" fill="black"/>
<path d="M109.69 31.3164C109.44 33.1654 107.835 34.4343 105.781 34.4343C103.14 34.4343 101.5 32.4491 101.5 29.2642C101.5 26.0693 103.149 23.9973 105.703 23.9973C108.215 23.9973 109.794 25.9331 109.794 29.0214V29.7377H103.382V29.864C103.352 30.2389 103.394 30.6165 103.504 30.9718C103.615 31.3271 103.792 31.652 104.023 31.9249C104.254 32.1977 104.534 32.4123 104.844 32.5544C105.155 32.6965 105.489 32.7629 105.824 32.749C106.265 32.7953 106.706 32.6809 107.084 32.4228C107.462 32.1646 107.755 31.7766 107.921 31.3164L109.69 31.3164ZM103.391 28.2765H107.93C107.946 27.9394 107.901 27.6022 107.796 27.2858C107.691 26.9694 107.529 26.6808 107.32 26.4381C107.111 26.1954 106.859 26.0037 106.581 25.8752C106.302 25.7467 106.004 25.6842 105.703 25.6914C105.399 25.6894 105.098 25.7548 104.818 25.8839C104.537 26.013 104.281 26.2032 104.066 26.4435C103.852 26.6838 103.681 26.9696 103.565 27.2842C103.449 27.5988 103.39 27.936 103.391 28.2765V28.2765Z" fill="black"/>
<path d="M37.9324 9.82207C38.3231 9.79062 38.7151 9.85683 39.0803 10.0159C39.4454 10.1751 39.7745 10.4231 40.0439 10.7422C40.3132 11.0613 40.5161 11.4434 40.6378 11.8611C40.7595 12.2788 40.7971 12.7216 40.7479 13.1575C40.7479 15.302 39.7147 16.5348 37.9324 16.5348H35.7711V9.82207H37.9324ZM36.7004 15.5854H37.8286C38.1078 15.6042 38.3871 15.5528 38.6464 15.4351C38.9057 15.3174 39.1383 15.1364 39.3273 14.9051C39.5163 14.6738 39.657 14.3982 39.7391 14.0983C39.8212 13.7983 39.8426 13.4816 39.8019 13.1712C39.8397 12.862 39.8161 12.5473 39.7327 12.2495C39.6494 11.9518 39.5083 11.6784 39.3197 11.449C39.1311 11.2195 38.8997 11.0398 38.6419 10.9225C38.3841 10.8052 38.1063 10.7534 37.8286 10.7707H36.7004V15.5854Z" fill="black"/>
<path d="M41.7977 13.9998C41.7693 13.6669 41.8032 13.331 41.8973 13.0136C41.9915 12.6963 42.1436 12.4046 42.3441 12.1571C42.5446 11.9096 42.789 11.7119 43.0617 11.5765C43.3343 11.4412 43.6291 11.3713 43.9272 11.3713C44.2253 11.3713 44.5201 11.4412 44.7927 11.5765C45.0653 11.7119 45.3097 11.9096 45.5102 12.1571C45.7107 12.4046 45.8629 12.6963 45.957 13.0136C46.0511 13.331 46.0851 13.6669 46.0567 13.9998C46.0856 14.333 46.0521 14.6694 45.9582 14.9872C45.8644 15.305 45.7123 15.5973 45.5117 15.8453C45.3112 16.0933 45.0666 16.2914 44.7937 16.427C44.5208 16.5626 44.2256 16.6327 43.9272 16.6327C43.6287 16.6327 43.3336 16.5626 43.0607 16.427C42.7878 16.2914 42.5432 16.0933 42.3427 15.8453C42.1421 15.5973 41.99 15.305 41.8962 14.9872C41.8023 14.6694 41.7688 14.333 41.7977 13.9998ZM45.14 13.9998C45.14 12.9017 44.7003 12.2595 43.9287 12.2595C43.154 12.2595 42.7183 12.9017 42.7183 13.9998C42.7183 15.1067 43.1541 15.7439 43.9287 15.7439C44.7004 15.7438 45.1401 15.1022 45.1401 13.9998H45.14Z" fill="black"/>
<path d="M51.718 16.5348H50.7936L49.8603 12.8038H49.7898L48.8604 16.5348H47.9448L46.7001 11.469H47.604L48.4129 15.3345H48.4795L49.4079 11.469H50.2628L51.1912 15.3345H51.2617L52.0667 11.469H52.9578L51.718 16.5348Z" fill="black"/>
<path d="M54.0047 11.469H54.8626V12.2737H54.9292C55.0422 11.9847 55.2327 11.7424 55.4742 11.5806C55.7158 11.4188 55.9963 11.3456 56.2767 11.3712C56.4964 11.3527 56.717 11.3898 56.9222 11.4799C57.1274 11.57 57.3118 11.7108 57.462 11.8917C57.6121 12.0727 57.7239 12.2892 57.7893 12.5253C57.8547 12.7613 57.8719 13.0108 57.8397 13.2553V16.5347H56.9485V13.5064C56.9485 12.6923 56.6332 12.2875 55.9741 12.2875C55.8249 12.2797 55.676 12.3082 55.5376 12.371C55.3991 12.4338 55.2744 12.5294 55.172 12.6514C55.0696 12.7733 54.9919 12.9186 54.9442 13.0774C54.8966 13.2362 54.8801 13.4046 54.8959 13.5712V16.5348H54.0047L54.0047 11.469Z" fill="black"/>
<path d="M59.2597 9.49146H60.1508V16.5348H59.2597V9.49146Z" fill="black"/>
<path d="M61.3896 13.9996C61.3613 13.6667 61.3952 13.3308 61.4894 13.0134C61.5835 12.6961 61.7357 12.4043 61.9362 12.1568C62.1367 11.9094 62.3812 11.7116 62.6538 11.5763C62.9264 11.441 63.2213 11.3711 63.5194 11.3711C63.8175 11.3711 64.1123 11.441 64.385 11.5763C64.6576 11.7116 64.902 11.9094 65.1025 12.1568C65.3031 12.4043 65.4553 12.6961 65.5494 13.0134C65.6435 13.3308 65.6775 13.6667 65.6491 13.9996C65.678 14.3329 65.6444 14.6692 65.5506 14.9871C65.4567 15.3049 65.3046 15.5972 65.104 15.8452C64.9034 16.0931 64.6588 16.2913 64.3859 16.4269C64.113 16.5625 63.8179 16.6325 63.5194 16.6325C63.2209 16.6325 62.9257 16.5625 62.6529 16.4269C62.38 16.2913 62.1354 16.0931 61.9348 15.8452C61.7342 15.5972 61.5821 15.3049 61.4882 14.9871C61.3943 14.6692 61.3608 14.3329 61.3896 13.9996ZM64.732 13.9996C64.732 12.9015 64.2923 12.2594 63.5206 12.2594C62.746 12.2594 62.3102 12.9015 62.3102 13.9996C62.3102 15.1065 62.746 15.7437 63.5206 15.7437C64.2923 15.7437 64.732 15.1021 64.732 13.9996H64.732Z" fill="black"/>
<path d="M66.5873 15.1023C66.5873 14.1904 67.1925 13.6647 68.2668 13.59L69.49 13.5109V13.0737C69.49 12.5386 69.1746 12.2365 68.5655 12.2365C68.068 12.2365 67.7233 12.4414 67.6244 12.7996H66.7616C66.8527 11.9294 67.5823 11.3713 68.6066 11.3713C69.7387 11.3713 70.3772 12.0036 70.3772 13.0737V16.5349H69.5193V15.823H69.4488C69.3057 16.0784 69.1048 16.2865 68.8665 16.4263C68.6282 16.566 68.3611 16.6323 68.0925 16.6184C67.9029 16.6405 67.7113 16.6178 67.5301 16.5518C67.3488 16.4857 67.1819 16.3778 67.0401 16.235C66.8983 16.0921 66.7847 15.9175 66.7067 15.7224C66.6287 15.5274 66.5881 15.3161 66.5873 15.1023ZM69.49 14.6694V14.2459L68.3873 14.325C67.7654 14.3717 67.4834 14.609 67.4834 15.0556C67.4834 15.5115 67.8359 15.7768 68.3207 15.7768C68.4627 15.793 68.6062 15.7769 68.7426 15.7295C68.879 15.6822 69.0055 15.6045 69.1146 15.5012C69.2237 15.3979 69.3131 15.271 69.3776 15.1281C69.4421 14.9852 69.4803 14.8292 69.49 14.6694Z" fill="black"/>
<path d="M71.5484 13.9997C71.5484 12.399 72.282 11.385 73.4228 11.385C73.705 11.3704 73.9851 11.4462 74.2303 11.6036C74.4755 11.761 74.6758 11.9934 74.8076 12.2737H74.8742V9.49146H75.7653V16.5348H74.9114V15.7344H74.8409C74.6989 16.0129 74.4917 16.2424 74.2417 16.3982C73.9918 16.554 73.7086 16.6301 73.4228 16.6183C72.2741 16.6183 71.5484 15.6043 71.5484 13.9997ZM72.469 13.9997C72.469 15.0742 72.9205 15.7207 73.6755 15.7207C74.4266 15.7207 74.8908 15.0649 74.8908 14.0041C74.8908 12.9483 74.4218 12.2831 73.6755 12.2831C72.9254 12.2831 72.469 12.934 72.469 13.9997H72.469Z" fill="black"/>
<path d="M79.4524 13.9998C79.424 13.6669 79.458 13.331 79.5521 13.0136C79.6462 12.6963 79.7984 12.4046 79.9989 12.1571C80.1994 11.9096 80.4438 11.7119 80.7164 11.5765C80.989 11.4412 81.2838 11.3713 81.5819 11.3713C81.88 11.3713 82.1748 11.4412 82.4474 11.5765C82.72 11.7119 82.9644 11.9096 83.1649 12.1571C83.3654 12.4046 83.5176 12.6963 83.6117 13.0136C83.7058 13.331 83.7398 13.6669 83.7114 13.9998C83.7403 14.333 83.7068 14.6694 83.6129 14.9872C83.5191 15.305 83.367 15.5973 83.1664 15.8453C82.9659 16.0933 82.7213 16.2914 82.4484 16.427C82.1755 16.5626 81.8804 16.6327 81.5819 16.6327C81.2834 16.6327 80.9883 16.5626 80.7154 16.427C80.4425 16.2914 80.1979 16.0933 79.9974 15.8453C79.7968 15.5973 79.6447 15.305 79.5509 14.9872C79.457 14.6694 79.4235 14.333 79.4524 13.9998ZM82.7948 13.9998C82.7948 12.9017 82.3551 12.2595 81.5834 12.2595C80.8087 12.2595 80.373 12.9017 80.373 13.9998C80.373 15.1067 80.8088 15.7439 81.5834 15.7439C82.3551 15.7438 82.7948 15.1022 82.7948 13.9998Z" fill="black"/>
<path d="M84.9071 11.469H85.765V12.2737H85.8316C85.9446 11.9847 86.1351 11.7424 86.3767 11.5806C86.6182 11.4188 86.8987 11.3456 87.1791 11.3712C87.3988 11.3527 87.6195 11.3898 87.8246 11.4799C88.0298 11.57 88.2143 11.7108 88.3644 11.8917C88.5145 12.0727 88.6264 12.2892 88.6918 12.5253C88.7571 12.7613 88.7743 13.0108 88.7421 13.2553V16.5347H87.8509V13.5064C87.8509 12.6923 87.5356 12.2875 86.8765 12.2875C86.7273 12.2797 86.5784 12.3082 86.44 12.371C86.3015 12.4338 86.1768 12.5294 86.0744 12.6514C85.972 12.7733 85.8943 12.9186 85.8467 13.0774C85.799 13.2362 85.7825 13.4046 85.7983 13.5712V16.5348H84.9071V11.469Z" fill="black"/>
<path d="M93.7777 10.2078V11.4921H94.756V12.3342H93.7777V14.939C93.7777 15.4697 93.9726 15.702 94.4162 15.702C94.5298 15.7016 94.6432 15.6939 94.756 15.679V16.5117C94.596 16.5438 94.4338 16.5609 94.2712 16.5628C93.2802 16.5628 92.8855 16.1717 92.8855 15.195V12.3341H92.1687V11.492H92.8855V10.2078H93.7777Z" fill="black"/>
<path d="M95.9733 9.49146H96.8566V12.2831H96.9271C97.0456 11.9914 97.2413 11.7477 97.4877 11.5853C97.7341 11.4229 98.0191 11.3497 98.304 11.3756C98.5225 11.3623 98.741 11.4032 98.9439 11.4955C99.1467 11.5878 99.3289 11.7292 99.4775 11.9096C99.626 12.0899 99.7372 12.3049 99.8032 12.539C99.8692 12.7732 99.8882 13.0208 99.8591 13.2642V16.5348H98.967V13.5108C98.967 12.7017 98.6311 12.2919 98.0015 12.2919C97.8483 12.2778 97.6942 12.3014 97.55 12.3611C97.4059 12.4208 97.275 12.5151 97.1668 12.6374C97.0585 12.7597 96.9753 12.9071 96.9231 13.0693C96.8709 13.2314 96.8509 13.4044 96.8645 13.5762V16.5348H95.9733L95.9733 9.49146Z" fill="black"/>
<path d="M105.055 15.167C104.934 15.6299 104.672 16.0304 104.314 16.2983C103.957 16.5663 103.526 16.6845 103.099 16.6325C102.801 16.6413 102.506 16.5774 102.232 16.4452C101.959 16.313 101.715 16.1156 101.516 15.8668C101.318 15.6181 101.17 15.3238 101.083 15.0045C100.996 14.6852 100.972 14.3485 101.013 14.0178C100.973 13.686 100.998 13.3486 101.084 13.0284C101.171 12.7081 101.318 12.4125 101.515 12.1615C101.713 11.9106 101.956 11.7101 102.229 11.5738C102.501 11.4374 102.796 11.3683 103.095 11.3712C104.351 11.3712 105.109 12.3342 105.109 13.9249V14.2738H101.921V14.3298C101.907 14.5157 101.927 14.7028 101.982 14.8792C102.036 15.0555 102.123 15.2172 102.236 15.3538C102.349 15.4905 102.486 15.5991 102.639 15.6726C102.792 15.7462 102.957 15.7831 103.123 15.7811C103.336 15.8098 103.552 15.7667 103.744 15.6573C103.935 15.548 104.093 15.3773 104.197 15.1669L105.055 15.167ZM101.921 13.5344H104.201C104.213 13.3644 104.192 13.1936 104.141 13.033C104.09 12.8725 104.009 12.7257 103.905 12.6021C103.8 12.4785 103.673 12.3809 103.533 12.3154C103.393 12.25 103.242 12.2182 103.09 12.2221C102.936 12.2199 102.783 12.2524 102.64 12.3176C102.497 12.3827 102.368 12.4793 102.259 12.6016C102.15 12.7239 102.064 12.8695 102.005 13.0297C101.947 13.1899 101.919 13.3615 101.921 13.5344H101.921Z" fill="black"/>
</g>
<defs>
<clipPath id="clip0">
<rect width="120" height="45" fill="white"/>
</clipPath>
</defs>
</svg>
