<svg width="114" height="28" viewBox="0 0 114 28" fill="none" xmlns="http://www.w3.org/2000/svg">
<path d="M10.244 21.182C8.528 21.182 6.95067 20.7833 5.512 19.986C4.09067 19.1887 2.95533 18.0793 2.106 16.658C1.274 15.2193 0.858 13.6073 0.858 11.822C0.858 10.0367 1.274 8.43333 2.106 7.012C2.95533 5.59067 4.09067 4.48133 5.512 3.684C6.95067 2.88667 8.528 2.488 10.244 2.488C11.96 2.488 13.5287 2.88667 14.95 3.684C16.3887 4.48133 17.5153 5.59067 18.33 7.012C19.162 8.43333 19.578 10.0367 19.578 11.822C19.578 13.6073 19.162 15.2193 18.33 16.658C17.498 18.0793 16.3713 19.1887 14.95 19.986C13.5287 20.7833 11.96 21.182 10.244 21.182ZM10.244 17.126C11.7 17.126 12.8613 16.6407 13.728 15.67C14.612 14.6993 15.054 13.4167 15.054 11.822C15.054 10.21 14.612 8.92733 13.728 7.974C12.8613 7.00333 11.7 6.518 10.244 6.518C8.77067 6.518 7.592 6.99467 6.708 7.948C5.84133 8.90133 5.408 10.1927 5.408 11.822C5.408 13.434 5.84133 14.7253 6.708 15.696C7.592 16.6493 8.77067 17.126 10.244 17.126ZM29.3315 10.184H26.9395V21H22.4935V10.184H20.8815V6.492H22.4935V6.076C22.4935 4.29067 23.0048 2.93867 24.0275 2.02C25.0501 1.084 26.5495 0.615999 28.5255 0.615999C28.8548 0.615999 29.0975 0.624666 29.2535 0.641999V4.412C28.4041 4.36 27.8061 4.48133 27.4595 4.776C27.1128 5.07067 26.9395 5.59933 26.9395 6.362V6.492H29.3315V10.184ZM37.3226 21.208C36.0573 21.208 34.9306 20.9913 33.9426 20.558C32.9546 20.1247 32.1746 19.5353 31.6026 18.79C31.0306 18.0273 30.7099 17.178 30.6406 16.242H35.0346C35.0866 16.7447 35.3206 17.152 35.7366 17.464C36.1526 17.776 36.6639 17.932 37.2706 17.932C37.8253 17.932 38.2499 17.828 38.5446 17.62C38.8566 17.3947 39.0126 17.1087 39.0126 16.762C39.0126 16.346 38.7959 16.0427 38.3626 15.852C37.9293 15.644 37.2273 15.4187 36.2566 15.176C35.2166 14.9333 34.3499 14.682 33.6566 14.422C32.9633 14.1447 32.3653 13.72 31.8626 13.148C31.3599 12.5587 31.1086 11.77 31.1086 10.782C31.1086 9.95 31.3339 9.196 31.7846 8.52C32.2526 7.82667 32.9286 7.28067 33.8126 6.882C34.7139 6.48333 35.7799 6.284 37.0106 6.284C38.8306 6.284 40.2606 6.73467 41.3006 7.636C42.3579 8.53733 42.9646 9.73333 43.1206 11.224H39.0126C38.9433 10.7213 38.7179 10.3227 38.3366 10.028C37.9726 9.73333 37.4873 9.586 36.8806 9.586C36.3606 9.586 35.9619 9.69 35.6846 9.898C35.4073 10.0887 35.2686 10.3573 35.2686 10.704C35.2686 11.12 35.4853 11.432 35.9186 11.64C36.3693 11.848 37.0626 12.056 37.9986 12.264C39.0733 12.5413 39.9486 12.8187 40.6246 13.096C41.3006 13.356 41.8899 13.7893 42.3926 14.396C42.9126 14.9853 43.1813 15.7827 43.1986 16.788C43.1986 17.6373 42.9559 18.4 42.4706 19.076C42.0026 19.7347 41.3179 20.2547 40.4166 20.636C39.5326 21.0173 38.5013 21.208 37.3226 21.208ZM50.3646 8.546C50.798 7.87 51.396 7.324 52.1586 6.908C52.9213 6.492 53.814 6.284 54.8366 6.284C56.0326 6.284 57.116 6.58733 58.0866 7.194C59.0573 7.80067 59.82 8.66733 60.3746 9.794C60.9466 10.9207 61.2326 12.2293 61.2326 13.72C61.2326 15.2107 60.9466 16.528 60.3746 17.672C59.82 18.7987 59.0573 19.674 58.0866 20.298C57.116 20.9047 56.0326 21.208 54.8366 21.208C53.8313 21.208 52.9386 21 52.1586 20.584C51.396 20.168 50.798 19.6307 50.3646 18.972V27.916H45.9186V6.492H50.3646V8.546ZM56.7086 13.72C56.7086 12.6107 56.3966 11.744 55.7726 11.12C55.166 10.4787 54.412 10.158 53.5106 10.158C52.6266 10.158 51.8726 10.4787 51.2486 11.12C50.642 11.7613 50.3386 12.6367 50.3386 13.746C50.3386 14.8553 50.642 15.7307 51.2486 16.372C51.8726 17.0133 52.6266 17.334 53.5106 17.334C54.3946 17.334 55.1486 17.0133 55.7726 16.372C56.3966 15.7133 56.7086 14.8293 56.7086 13.72ZM80.2831 22.066V26.33H64.1631V22.066H80.2831ZM82.9682 13.746C82.9682 12.238 83.2716 10.9207 83.8782 9.794C84.5022 8.66733 85.3602 7.80067 86.4522 7.194C87.5616 6.58733 88.8269 6.284 90.2482 6.284C92.0682 6.284 93.5849 6.76067 94.7982 7.714C96.0289 8.66733 96.8349 10.0107 97.2162 11.744H92.4842C92.0856 10.6347 91.3142 10.08 90.1702 10.08C89.3556 10.08 88.7056 10.4007 88.2202 11.042C87.7349 11.666 87.4922 12.5673 87.4922 13.746C87.4922 14.9247 87.7349 15.8347 88.2202 16.476C88.7056 17.1 89.3556 17.412 90.1702 17.412C91.3142 17.412 92.0856 16.8573 92.4842 15.748H97.2162C96.8349 17.4467 96.0289 18.7813 94.7982 19.752C93.5676 20.7227 92.0509 21.208 90.2482 21.208C88.8269 21.208 87.5616 20.9047 86.4522 20.298C85.3602 19.6913 84.5022 18.8247 83.8782 17.698C83.2716 16.5713 82.9682 15.254 82.9682 13.746ZM113.27 13.512C113.27 13.928 113.244 14.3613 113.192 14.812H103.13C103.2 15.7133 103.486 16.4067 103.988 16.892C104.508 17.36 105.141 17.594 105.886 17.594C106.996 17.594 107.767 17.126 108.2 16.19H112.932C112.69 17.1433 112.248 18.0013 111.606 18.764C110.982 19.5267 110.194 20.1247 109.24 20.558C108.287 20.9913 107.221 21.208 106.042 21.208C104.621 21.208 103.356 20.9047 102.246 20.298C101.137 19.6913 100.27 18.8247 99.6464 17.698C99.0224 16.5713 98.7104 15.254 98.7104 13.746C98.7104 12.238 99.0138 10.9207 99.6204 9.794C100.244 8.66733 101.111 7.80067 102.22 7.194C103.33 6.58733 104.604 6.284 106.042 6.284C107.446 6.284 108.694 6.57867 109.786 7.168C110.878 7.75733 111.728 8.598 112.334 9.69C112.958 10.782 113.27 12.056 113.27 13.512ZM108.72 12.342C108.72 11.5793 108.46 10.9727 107.94 10.522C107.42 10.0713 106.77 9.846 105.99 9.846C105.245 9.846 104.612 10.0627 104.092 10.496C103.59 10.9293 103.278 11.5447 103.156 12.342H108.72Z" fill="#04135D"/>
</svg>
